<mxfile compressed="false" host="Electron" modified="2024-01-05T14:21:35.050Z" agent="Mozilla/5.0 (Windows NT 10.0; Win64; x64) AppleWebKit/537.36 (KHTML, like Gecko) draw.io/22.1.16 Chrome/120.0.6099.109 Electron/28.1.0 Safari/537.36" etag="qTQe0ZIM-LpK9KXAvWYQ" version="22.1.16" type="device">
  <diagram name="Zeichenblatt-1" id="Zeichenblatt-1">
    <mxGraphModel dx="1434" dy="2005" grid="1" gridSize="10" guides="1" tooltips="1" connect="1" arrows="1" fold="1" page="1" pageScale="1" pageWidth="827" pageHeight="1169" math="0" shadow="0">
      <root>
        <object tooltip="" id="0">
          <ag_global_attributes>
            <ag_global_attribute name="Resources" value="" iconName="hammer" min="0" max="5" />
            <ag_global_attribute name="Knowledge" value="" iconName="lightbulb" min="0" max="5" />
            <ag_global_attribute name="Location" value="" iconName="map_pin_ellipse" min="0" max="1" />
            <ag_global_attribute name="Impact" value="" iconName="flame" min="0" max="5" />
          </ag_global_attributes>
          <ag_attributes />
          <ag_computed_attributes />
          <ag_aggregation_functions>
            <ag_aggregation_function name="default" id="6b1d22791hih8" default="activity_w;link" fn="function (collection) { &#10;    var result = null; &#10;    if (collection.childAttributes.length == 1) { &#10;        result = collection.childAttributes[0].attributes;&#10;        result._marking = collection.childAttributes[0].id;&#10;    } else { &#10;        var candidates = []; &#10;        var worstValue = 0; &#10;        collection.childAttributes.forEach(function(child) { &#10;            var value = parseInt(child.computedAttribute); &#10;            if (value &gt; worstValue) { &#10;                worstValue = value; &#10;                candidates = []; &#10;                candidates.push(child); &#10;            } else if (value == worstValue) { &#10;                candidates.push(child); &#10;            } &#10;        }); &#10;        var tiebreaker = function(candidates, name, max) { &#10;            var min_value = max; &#10;            candidates.forEach(function(node) { &#10;                min_value = Math.min(min_value, node.attributes[name]); &#10;            }); &#10;            result = []; &#10;            candidates.forEach(function(node) { &#10;                if (node.attributes[name] == min_value) { &#10;                    result.push(node); &#10;                } &#10;            }); &#10;            return result; &#10;        }; &#10;        if (candidates.length &gt; 1) { &#10;            candidates = tiebreaker(candidates, &quot;Resources&quot;, collection.globalAttributes[&quot;Resources&quot;].max); &#10;            if (candidates.length &gt; 1) { &#10;                candidates = tiebreaker(candidates, &quot;Knowledge&quot;, collection.globalAttributes[&quot;Knowledge&quot;].max); &#10;            } &#10;        } &#10;        result = candidates[0].attributes;&#10;        result._marking = candidates[0].id;&#10;    } &#10;    return result; &#10;}" />
            <ag_aggregation_function name="AND" id="gf0d4f199018" default="and" fn="function (collection) { &#10;    var result = {}; &#10;    var ids = [];&#10;    collection.childAttributes.forEach(function(child) { &#10;    for (var attribute in child.attributes) { &#10;            if (attribute in result) { &#10;                result[attribute] += parseInt(child.attributes[attribute]); &#10;            } else { &#10;                result[attribute] = parseInt(child.attributes[attribute]); &#10;            } &#10;        }&#10;        ids.push(child.id);&#10;    }); &#10;    for (var attribute in result) { &#10;        if (attribute in collection.globalAttributes) { &#10;            result[attribute] = Math.min(collection.globalAttributes[attribute].max, result[attribute]); &#10;        } &#10;    }&#10;    result._marking = ids.join(&quot;;&quot;);&#10;    return result; &#10;}" />
            <ag_aggregation_function name="Security Control" id="73f575i0ghij5" default="activity_g;activity_y" fn="function (collection) { &#10;    var result = {}; &#10;    for (var attribute in collection.localAttributes) { &#10;        result[attribute] = parseInt(collection.localAttributes[attribute]); &#10;    } &#10;    collection.childAttributes.forEach(function(child) { &#10;        for (var attribute in child.attributes) { &#10;            if (attribute in collection.globalAttributes) { &#10;                if (attribute in result) { &#10;                    result[attribute] += parseInt(child.attributes[attribute]); &#10;                } &#10;            } &#10;        } &#10;    }); &#10;    for (var attribute in result) { &#10;        if (attribute in collection.globalAttributes) { &#10;            result[attribute] = Math.min(collection.globalAttributes[attribute].max, result[attribute]); &#10;        } &#10;    } &#10;    return result; &#10;}" />
            <ag_aggregation_function name="Risk" id="egf49jfgj408" default="consequence" fn="function (collection) {  &#10;    var maxRisk = &quot;L&quot;; &#10;    var matrix = [ &#10;        [&quot;L&quot;, &quot;L&quot;, &quot;L&quot;, &quot;L&quot;, &quot;L&quot;], &#10;        [&quot;L&quot;, &quot;L&quot;, &quot;M&quot;, &quot;M&quot;, &quot;M&quot;], &#10;        [&quot;L&quot;, &quot;M&quot;, &quot;M&quot;, &quot;S&quot;, &quot;S&quot;], &#10;        [&quot;L&quot;, &quot;M&quot;, &quot;S&quot;, &quot;V&quot;, &quot;V&quot;], &#10;        [&quot;L&quot;, &quot;M&quot;, &quot;S&quot;, &quot;V&quot;, &quot;V&quot;], &#10;    ];&#10;    var updatedImpacts = [];&#10;    var ids = [];&#10; &#10;    var compareRisk = function(risk1, risk2) { &#10;        /*&#10;        * Returns:&#10;        *  - Null: if one of the parameters is not a character representing a risk&#10;        *  - Negativ integer: if risk1 &lt; risk2&#10;        *  - Zero: if risks are equal&#10;        *  - Positive integer: if risk1 &gt; risk2&#10;        */&#10;        var values = [&quot;L&quot;, &quot;M&quot;, &quot;S&quot;, &quot;V&quot;]; &#10;        var index_risk1 = values.indexOf(risk1); &#10;        var index_risk2 = values.indexOf(risk2); &#10; &#10;        if (index_risk1 == -1 || index_risk2 == -1) { &#10;            return null; &#10;        } &#10;        return index_risk1 - index_risk2; &#10; &#10;    } &#10;     &#10;    collection.childAttributes.forEach(function(child) {  &#10;        var impact = 1;  &#10;        if (child.edgeWeight !== null) {  &#10;            impact = parseInt(child.edgeWeight);  &#10;        }&#10;        var _impact = parseInt(child.attributes._impact) || 0;&#10;        impact = Math.max(impact - _impact, 1);&#10;        updatedImpacts.push(child.id + ':' + impact);&#10;        var af = parseInt(child.computedAttribute) || parseInt(child.attributes._af);&#10;        risk = matrix[af - 1][impact - 1];&#10;        result = compareRisk(risk, maxRisk);&#10;        if (result &gt; 0) { &#10;            maxRisk = risk;&#10;            ids = [child.id];&#10;        } else if (result == 0){&#10;            ids.push(child.id);&#10;        }&#10;    });  &#10;  &#10;    var result = {'_risk': maxRisk, &quot;_marking&quot;: ids.join(&quot;;&quot;)};&#10;    if (updatedImpacts.length &gt; 0) {&#10;        result._weight = updatedImpacts.join(';');&#10;    }&#10;    return result;&#10;}" />
            <ag_aggregation_function name="Impact" id="3j7heb16d5f6" default="" fn="function(collection) {&#10;    var impact = 0;&#10;    var result = {}&#10;    &#10;    collection.childAttributes.forEach(function(child) {&#10;        if (&quot;Impact&quot; in child.attributes) {&#10;            impact += parseInt(child.attributes[&quot;Impact&quot;]);&#10;        } else if (&quot;Resources&quot; in child.attributes &amp;&amp; &quot;Knowledge&quot; in child.attributes &amp;&amp; &quot;Location&quot; in child.attributes) {&#10;            result._af = child.computedAttribute&#10;            result._marking = child.id;&#10;        }&#10;    });&#10;    result._impact = Math.min(impact, collection.globalAttributes[&quot;Impact&quot;].max);&#10;    &#10;    return result;&#10;}" />
          </ag_aggregation_functions>
          <ag_computed_attributes_functions>
            <ag_computed_attributes_function name="default" id="dbg60ff69g9a" default="activity_w;activity_g;activity_y" fn="function (collection) { &#10;    var colorMatrix = {&#10;        5: {&quot;fillColor&quot;: &quot;#cc0000&quot;, &quot;fontColor&quot;: &quot;#ffffff&quot;},&#10;        4: {&quot;fillColor&quot;: &quot;#ff4000&quot;, &quot;fontColor&quot;: &quot;#ffffff&quot;},&#10;        3: {&quot;fillColor&quot;: &quot;#ffdd00&quot;, &quot;fontColor&quot;: &quot;#000000&quot;},&#10;        2: {&quot;fillColor&quot;: &quot;#d4ff00&quot;, &quot;fontColor&quot;: &quot;#000000&quot;},&#10;        1: {&quot;fillColor&quot;: &quot;#40ff00&quot;, &quot;fontColor&quot;: &quot;#000000&quot;}&#10;    }&#10;    var matrix = [ &#10;        [5, 5, 4, 3, 2], &#10;        [5, 4, 4, 3, 2], &#10;        [5, 4, 4, 3, 2], &#10;        [4, 3, 3, 2, 1], &#10;        [3, 2, 2, 1, 1], &#10;    ];&#10;    var result = {};&#10;    &#10;    if (&quot;Knowledge&quot; in collection.cellAttributes &amp;&amp; &quot;Resources&quot; in collection.cellAttributes) {&#10;        var knowledgeIndex = parseInt(collection.cellAttributes[&quot;Knowledge&quot;]) - 1; &#10;        var resourcesIndex = parseInt(collection.cellAttributes[&quot;Resources&quot;]) - 1;&#10;        &#10;        var value = Math.min(5, &#10;            Math.max(collection.globalAttributes[&quot;Location&quot;].max, &#10;                Math.max( matrix[knowledgeIndex][resourcesIndex] - parseInt(collection.cellAttributes[&quot;Location&quot;])) &#10;            ));&#10;        result = colorMatrix[value] || result;&#10;        result[&quot;value&quot;] = value;&#10;    }&#10;    &#10;    return result;&#10;}" />
            <ag_computed_attributes_function name="Risk" id="6c831697g9i0a" default="consequence" fn="function(collection){&#10;    var riskMatrix = {&#10;        &quot;V&quot;: {&quot;fillColor&quot;: &quot;#cc0000&quot;, &quot;fontColor&quot;: &quot;#ffffff&quot;},&#10;        &quot;S&quot;: {&quot;fillColor&quot;: &quot;#ff4000&quot;, &quot;fontColor&quot;: &quot;#ffffff&quot;},&#10;        &quot;M&quot;: {&quot;fillColor&quot;: &quot;#ffdd00&quot;, &quot;fontColor&quot;: &quot;#000000&quot;},&#10;        &quot;L&quot;: {&quot;fillColor&quot;: &quot;#40ff00&quot;, &quot;fontColor&quot;: &quot;#000000&quot;},&#10;    };&#10;    var result = {};&#10;    &#10;    if (&quot;_risk&quot; in collection.cellAttributes) {&#10;        var risk = collection.cellAttributes[&quot;_risk&quot;];&#10;        result = riskMatrix[risk] || result;&#10;        result[&quot;value&quot;] = risk;&#10;    }&#10;    &#10;    return result; &#10;}" />
          </ag_computed_attributes_functions>
          <mxCell />
        </object>
        <object label="Verbinder" id="1">
          <ag_attributes />
          <ag_computed_attributes />
          <mxCell style="" parent="0" />
        </object>
        <object label="Scalable changeover of field elements&#10;Without safety reaction" id="vUpLBa6X5mZJnKH7JWD7-17">
          <ag_attributes label="NaN" Resources="5" Knowledge="5" Location="0" _marking="vUpLBa6X5mZJnKH7JWD7-18" />
          <ag_computed_attributes fillColor="#40ff00" fontColor="#000000" value="1" />
          <ag_computed_attributes_function_reference ag_computed_attributes_function_reference="dbg60ff69g9a" />
          <ag_aggregation_function_reference ag_aggregation_function_reference="6b1d22791hih8" />
          <mxCell style="whiteSpace=wrap;shape=attackgraphs.node;verticalAlign=top;spacingRight=20;" parent="1" vertex="1">
            <mxGeometry x="454" y="-640" width="224" height="60" as="geometry" />
          </mxCell>
        </object>
        <object label="Manipulation communication network" Resources="" Knowledge="" Location="" id="vUpLBa6X5mZJnKH7JWD7-18">
          <ag_attributes label="NaN" Resources="5" Knowledge="5" Location="0" _marking="vUpLBa6X5mZJnKH7JWD7-23" />
          <ag_computed_attributes fillColor="#40ff00" fontColor="#000000" value="1" />
          <ag_computed_attributes_function_reference ag_computed_attributes_function_reference="dbg60ff69g9a" />
          <ag_aggregation_function_reference ag_aggregation_function_reference="6b1d22791hih8" />
          <mxCell style="whiteSpace=wrap;shape=attackgraphs.node;verticalAlign=top;spacingRight=20;" parent="1" vertex="1">
            <mxGeometry x="240" y="-390" width="162" height="60" as="geometry" />
          </mxCell>
        </object>
        <object label="Impersonation data center" Resources="" Knowledge="" Location="" id="vUpLBa6X5mZJnKH7JWD7-19">
          <ag_attributes label="NaN" Resources="5" Knowledge="5" Location="1" _marking="vUpLBa6X5mZJnKH7JWD7-21" />
          <ag_computed_attributes fillColor="#40ff00" fontColor="#000000" value="1" />
          <ag_computed_attributes_function_reference ag_computed_attributes_function_reference="dbg60ff69g9a" />
          <ag_aggregation_function_reference ag_aggregation_function_reference="6b1d22791hih8" />
          <mxCell style="whiteSpace=wrap;shape=attackgraphs.node;verticalAlign=top;spacingRight=20;" parent="1" vertex="1">
            <mxGeometry x="454" y="-390" width="126" height="60" as="geometry" />
          </mxCell>
        </object>
        <object id="ETMhu0fDtO1Yi5dX4Cxl-8">
          <ag_attributes />
          <ag_computed_attributes />
          <mxCell style="edgeStyle=none;rounded=0;orthogonalLoop=1;jettySize=auto;html=1;strokeWidth=2;entryX=0.373;entryY=0;entryDx=0;entryDy=0;entryPerimeter=0;endArrow=none;startArrow=diamondThin;startFill=1;endFill=0;startSize=9;endSize=9;spacingTop=0;spacingBottom=0;spacingLeft=0;spacingRight=0;strokeColor=#000000;" parent="1" source="vUpLBa6X5mZJnKH7JWD7-20" target="ETMhu0fDtO1Yi5dX4Cxl-1" edge="1">
            <mxGeometry relative="1" as="geometry" />
          </mxCell>
        </object>
        <object id="ETMhu0fDtO1Yi5dX4Cxl-11">
          <ag_attributes />
          <ag_computed_attributes />
          <mxCell style="edgeStyle=none;rounded=0;orthogonalLoop=1;jettySize=auto;html=1;strokeWidth=2;endArrow=none;startArrow=diamondThin;startFill=1;endFill=0;startSize=9;endSize=9;spacingTop=0;spacingBottom=0;spacingLeft=0;spacingRight=0;strokeColor=#000000;" parent="1" source="vUpLBa6X5mZJnKH7JWD7-20" target="ETMhu0fDtO1Yi5dX4Cxl-9" edge="1">
            <mxGeometry relative="1" as="geometry" />
          </mxCell>
        </object>
        <object label="Manipulation field element&#10;(signal, switch)" Resources="3" Knowledge="3" Location="1" id="vUpLBa6X5mZJnKH7JWD7-20">
          <ag_attributes label="NaN" Resources="5" Knowledge="5" Location="1" />
          <ag_computed_attributes fillColor="#40ff00" fontColor="#000000" value="1" />
          <ag_computed_attributes_function_reference ag_computed_attributes_function_reference="dbg60ff69g9a" />
          <ag_aggregation_function_reference ag_aggregation_function_reference="73f575i0ghij5" />
          <mxCell style="fillColor=#fee599;whiteSpace=wrap;shape=attackgraphs.node;verticalAlign=top;spacingRight=20;" parent="1" vertex="1">
            <mxGeometry x="594" y="-390" width="170" height="60" as="geometry" />
          </mxCell>
        </object>
        <object id="ZVXYmEzYP_AJPGhxlmkq-7">
          <ag_attributes />
          <ag_computed_attributes />
          <mxCell style="edgeStyle=none;rounded=0;orthogonalLoop=1;jettySize=auto;html=1;strokeWidth=2;entryX=0.447;entryY=-0.013;entryDx=0;entryDy=0;entryPerimeter=0;endArrow=none;startArrow=diamondThin;startFill=1;endFill=0;startSize=9;endSize=9;spacingTop=0;spacingBottom=0;spacingLeft=0;spacingRight=0;strokeColor=#000000;" parent="1" source="vUpLBa6X5mZJnKH7JWD7-21" target="5KIEMbQEbxPHfrAZ8GCO-1" edge="1">
            <mxGeometry relative="1" as="geometry" />
          </mxCell>
        </object>
        <object id="ETMhu0fDtO1Yi5dX4Cxl-6">
          <ag_attributes />
          <ag_computed_attributes />
          <mxCell style="edgeStyle=none;rounded=0;orthogonalLoop=1;jettySize=auto;html=1;strokeWidth=2;endArrow=none;startArrow=diamondThin;startFill=1;endFill=0;startSize=9;endSize=9;spacingTop=0;spacingBottom=0;spacingLeft=0;spacingRight=0;strokeColor=#000000;" parent="1" source="vUpLBa6X5mZJnKH7JWD7-21" target="ETMhu0fDtO1Yi5dX4Cxl-5" edge="1">
            <mxGeometry relative="1" as="geometry" />
          </mxCell>
        </object>
        <object label="Compromise cryptographic material" Resources="4" Knowledge="4" Location="0" id="vUpLBa6X5mZJnKH7JWD7-21">
          <ag_attributes label="NaN" Resources="5" Knowledge="5" Location="1" />
          <ag_computed_attributes fillColor="#40ff00" fontColor="#000000" value="1" />
          <ag_computed_attributes_function_reference ag_computed_attributes_function_reference="dbg60ff69g9a" />
          <ag_aggregation_function_reference ag_aggregation_function_reference="73f575i0ghij5" />
          <mxCell style="fillColor=#d7e3bf;whiteSpace=wrap;shape=attackgraphs.node;spacingRight=20;verticalAlign=top;" parent="1" vertex="1">
            <mxGeometry x="436" y="-245" width="164" height="60" as="geometry" />
          </mxCell>
        </object>
        <object id="ZVXYmEzYP_AJPGhxlmkq-11">
          <ag_attributes />
          <ag_computed_attributes />
          <mxCell style="edgeStyle=none;rounded=0;orthogonalLoop=1;jettySize=auto;html=1;strokeWidth=2;endArrow=none;startArrow=diamondThin;startSize=9;endSize=9;spacingTop=0;spacingBottom=0;spacingLeft=0;spacingRight=0;endFill=0;startFill=1;strokeColor=#000000;" parent="1" source="vUpLBa6X5mZJnKH7JWD7-23" target="ZVXYmEzYP_AJPGhxlmkq-9" edge="1">
            <mxGeometry relative="1" as="geometry" />
          </mxCell>
        </object>
        <object label="Replay Attack" Resources="3" Knowledge="3" Location="0" id="vUpLBa6X5mZJnKH7JWD7-23">
          <ag_attributes label="NaN" Resources="5" Knowledge="5" Location="0" />
          <ag_computed_attributes fillColor="#40ff00" fontColor="#000000" value="1" />
          <ag_computed_attributes_function_reference ag_computed_attributes_function_reference="dbg60ff69g9a" />
          <ag_aggregation_function_reference ag_aggregation_function_reference="73f575i0ghij5" />
          <mxCell style="fillColor=#fee599;whiteSpace=wrap;shape=attackgraphs.node;spacingRight=20;verticalAlign=top;" parent="1" vertex="1">
            <mxGeometry x="243.5" y="-245" width="150" height="60" as="geometry" />
          </mxCell>
        </object>
        <object label="Deceive infrastructure monitoring" Resources="" Knowledge="" Location="" id="vUpLBa6X5mZJnKH7JWD7-24">
          <ag_attributes label="NaN" Resources="5" Knowledge="5" Location="0" _marking="vUpLBa6X5mZJnKH7JWD7-35" />
          <ag_computed_attributes fillColor="#40ff00" fontColor="#000000" value="1" />
          <ag_computed_attributes_function_reference ag_computed_attributes_function_reference="dbg60ff69g9a" />
          <ag_aggregation_function_reference ag_aggregation_function_reference="6b1d22791hih8" />
          <mxCell style="whiteSpace=wrap;shape=attackgraphs.node;verticalAlign=top;spacingRight=20;" parent="1" vertex="1">
            <mxGeometry x="991" y="-640" width="170" height="60" as="geometry" />
          </mxCell>
        </object>
        <object id="ETMhu0fDtO1Yi5dX4Cxl-7">
          <ag_attributes />
          <ag_computed_attributes />
          <mxCell style="edgeStyle=none;rounded=0;orthogonalLoop=1;jettySize=auto;html=1;strokeWidth=2;entryX=0.86;entryY=0.013;entryDx=0;entryDy=0;entryPerimeter=0;endArrow=none;startArrow=diamondThin;startFill=1;endFill=0;startSize=9;endSize=9;spacingTop=0;spacingBottom=0;spacingLeft=0;spacingRight=0;strokeColor=#000000;" parent="1" source="vUpLBa6X5mZJnKH7JWD7-25" target="ETMhu0fDtO1Yi5dX4Cxl-1" edge="1">
            <mxGeometry relative="1" as="geometry" />
          </mxCell>
        </object>
        <object id="ETMhu0fDtO1Yi5dX4Cxl-10">
          <ag_attributes />
          <ag_computed_attributes />
          <mxCell style="edgeStyle=none;rounded=0;orthogonalLoop=1;jettySize=auto;html=1;strokeWidth=2;endArrow=none;startArrow=diamondThin;startFill=1;endFill=0;startSize=9;endSize=9;spacingTop=0;spacingBottom=0;spacingLeft=0;spacingRight=0;strokeColor=#000000;" parent="1" source="vUpLBa6X5mZJnKH7JWD7-25" target="ETMhu0fDtO1Yi5dX4Cxl-9" edge="1">
            <mxGeometry relative="1" as="geometry" />
          </mxCell>
        </object>
        <object label="Manipulation of field elements (track clearance notification, train integrity, level crossing)" Resources="3" Knowledge="3" Location="1" id="vUpLBa6X5mZJnKH7JWD7-25">
          <ag_attributes label="NaN" Resources="5" Knowledge="5" Location="1" />
          <ag_computed_attributes fillColor="#40ff00" fontColor="#000000" value="1" />
          <ag_computed_attributes_function_reference ag_computed_attributes_function_reference="dbg60ff69g9a" />
          <ag_aggregation_function_reference ag_aggregation_function_reference="73f575i0ghij5" />
          <mxCell style="fillColor=#fee599;whiteSpace=wrap;shape=attackgraphs.node;verticalAlign=top;spacingRight=20;" parent="1" vertex="1">
            <mxGeometry x="1140" y="-390" width="190" height="75" as="geometry" />
          </mxCell>
        </object>
        <object label="Interrupt communication" Resources="" Knowledge="" Location="" id="vUpLBa6X5mZJnKH7JWD7-26">
          <ag_attributes label="NaN" Knowledge="4" Resources="5" Location="1" _marking="vUpLBa6X5mZJnKH7JWD7-29" />
          <ag_computed_attributes fillColor="#40ff00" fontColor="#000000" value="1" />
          <ag_computed_attributes_function_reference ag_computed_attributes_function_reference="dbg60ff69g9a" />
          <ag_aggregation_function_reference ag_aggregation_function_reference="6b1d22791hih8" />
          <mxCell style="whiteSpace=wrap;shape=attackgraphs.node;spacingRight=20;verticalAlign=top;" parent="1" vertex="1">
            <mxGeometry x="1514" y="-640" width="190" height="45" as="geometry" />
          </mxCell>
        </object>
        <object id="3uWhjJXj1hLAOWgm0IXq-8">
          <ag_attributes />
          <ag_computed_attributes />
          <mxCell style="edgeStyle=none;rounded=0;orthogonalLoop=1;jettySize=auto;html=1;strokeWidth=2;endArrow=none;startArrow=diamondThin;startSize=9;endSize=9;spacingTop=0;spacingBottom=0;spacingLeft=0;spacingRight=0;endFill=0;startFill=1;strokeColor=#000000;" parent="1" source="vUpLBa6X5mZJnKH7JWD7-27" target="3uWhjJXj1hLAOWgm0IXq-1" edge="1">
            <mxGeometry relative="1" as="geometry" />
          </mxCell>
        </object>
        <object label="Destroy data center" Resources="2" Knowledge="2" Location="1" id="vUpLBa6X5mZJnKH7JWD7-27">
          <ag_attributes label="NaN" Resources="5" Knowledge="4" Location="1" />
          <ag_computed_attributes fillColor="#40ff00" fontColor="#000000" value="1" />
          <ag_computed_attributes_function_reference ag_computed_attributes_function_reference="dbg60ff69g9a" />
          <ag_aggregation_function_reference ag_aggregation_function_reference="73f575i0ghij5" />
          <mxCell style="fillColor=#fee599;whiteSpace=wrap;shape=attackgraphs.node;spacingRight=20;verticalAlign=top;" parent="1" vertex="1">
            <mxGeometry x="1860" y="-640" width="176" height="45" as="geometry" />
          </mxCell>
        </object>
        <object id="3uWhjJXj1hLAOWgm0IXq-5">
          <ag_attributes />
          <ag_computed_attributes />
          <mxCell style="edgeStyle=none;rounded=0;orthogonalLoop=1;jettySize=auto;html=1;strokeWidth=2;endArrow=none;startArrow=diamondThin;startFill=1;endFill=0;strokeColor=#000000;" parent="1" source="vUpLBa6X5mZJnKH7JWD7-28" target="3uWhjJXj1hLAOWgm0IXq-4" edge="1">
            <mxGeometry relative="1" as="geometry">
              <mxPoint x="1540" y="-140" as="targetPoint" />
            </mxGeometry>
          </mxCell>
        </object>
        <object label="FRMCS Jamming" Resources="2" Knowledge="2" Location="1" id="vUpLBa6X5mZJnKH7JWD7-28">
          <ag_attributes label="NaN" Resources="5" Knowledge="4" Location="1" />
          <ag_computed_attributes fillColor="#40ff00" fontColor="#000000" value="1" />
          <ag_computed_attributes_function_reference ag_computed_attributes_function_reference="dbg60ff69g9a" />
          <ag_aggregation_function_reference ag_aggregation_function_reference="73f575i0ghij5" />
          <mxCell style="fillColor=#fee599;whiteSpace=wrap;shape=attackgraphs.node;verticalAlign=top;spacingRight=20;" parent="1" vertex="1">
            <mxGeometry x="1474" y="-390" width="150" height="60" as="geometry" />
          </mxCell>
        </object>
        <object id="3uWhjJXj1hLAOWgm0IXq-2">
          <ag_attributes />
          <ag_computed_attributes />
          <mxCell style="rounded=0;orthogonalLoop=1;jettySize=auto;html=1;strokeWidth=2;endArrow=none;startArrow=diamondThin;startFill=1;endFill=0;strokeColor=#000000;" parent="1" source="vUpLBa6X5mZJnKH7JWD7-29" target="3uWhjJXj1hLAOWgm0IXq-1" edge="1">
            <mxGeometry relative="1" as="geometry" />
          </mxCell>
        </object>
        <object id="E_le5nDdO42Rsl0jmOGN-2">
          <ag_attributes />
          <ag_computed_attributes />
          <mxCell style="rounded=0;orthogonalLoop=1;jettySize=auto;html=1;strokeWidth=2;startArrow=diamondThin;startFill=1;endArrow=none;endFill=0;strokeColor=#000000;" parent="1" source="vUpLBa6X5mZJnKH7JWD7-29" target="E_le5nDdO42Rsl0jmOGN-1" edge="1">
            <mxGeometry relative="1" as="geometry" />
          </mxCell>
        </object>
        <object label="Destroy cable" Knowledge="1" Resources="1" Location="1" id="vUpLBa6X5mZJnKH7JWD7-29">
          <ag_attributes label="NaN" Knowledge="4" Resources="5" Location="1" />
          <ag_computed_attributes fillColor="#40ff00" fontColor="#000000" value="1" />
          <ag_computed_attributes_function_reference ag_computed_attributes_function_reference="dbg60ff69g9a" />
          <ag_aggregation_function_reference ag_aggregation_function_reference="73f575i0ghij5" />
          <mxCell style="fillColor=#d7e3bf;whiteSpace=wrap;shape=attackgraphs.node;verticalAlign=top;spacingRight=20;" parent="1" vertex="1">
            <mxGeometry x="1654" y="-390" width="150" height="60" as="geometry" />
          </mxCell>
        </object>
        <object id="ZVXYmEzYP_AJPGhxlmkq-2">
          <ag_attributes />
          <ag_computed_attributes />
          <mxCell style="rounded=0;orthogonalLoop=1;jettySize=auto;html=1;strokeWidth=2;endArrow=none;startArrow=diamondThin;startFill=1;endFill=0;startSize=9;endSize=9;spacingTop=0;spacingBottom=0;spacingLeft=0;spacingRight=0;strokeColor=#000000;" parent="1" source="vUpLBa6X5mZJnKH7JWD7-35" target="5KIEMbQEbxPHfrAZ8GCO-1" edge="1">
            <mxGeometry relative="1" as="geometry" />
          </mxCell>
        </object>
        <object id="ETMhu0fDtO1Yi5dX4Cxl-2">
          <ag_attributes />
          <ag_computed_attributes />
          <mxCell style="rounded=0;orthogonalLoop=1;jettySize=auto;html=1;strokeWidth=2;endArrow=none;startArrow=diamondThin;startFill=1;endFill=0;startSize=9;endSize=9;spacingTop=0;spacingBottom=0;spacingLeft=0;spacingRight=0;jumpStyle=arc;strokeColor=#000000;" parent="1" source="vUpLBa6X5mZJnKH7JWD7-35" target="ETMhu0fDtO1Yi5dX4Cxl-1" edge="1">
            <mxGeometry relative="1" as="geometry" />
          </mxCell>
        </object>
        <object label="Exploit Error in Safe Hardware" Resources="4" Knowledge="4" Location="0" id="vUpLBa6X5mZJnKH7JWD7-35">
          <ag_attributes label="NaN" Resources="5" Knowledge="5" Location="0" />
          <ag_computed_attributes fillColor="#40ff00" fontColor="#000000" value="1" />
          <ag_computed_attributes_function_reference ag_computed_attributes_function_reference="dbg60ff69g9a" />
          <ag_aggregation_function_reference ag_aggregation_function_reference="73f575i0ghij5" />
          <mxCell style="fillColor=#d7e3bf;whiteSpace=wrap;shape=attackgraphs.node;verticalAlign=top;spacingRight=20;" parent="1" vertex="1">
            <mxGeometry x="780" y="-390" width="150" height="60" as="geometry" />
          </mxCell>
        </object>
        <object id="ZVXYmEzYP_AJPGhxlmkq-6">
          <ag_attributes />
          <ag_computed_attributes />
          <mxCell style="edgeStyle=none;rounded=0;orthogonalLoop=1;jettySize=auto;html=1;strokeWidth=2;entryX=0.713;entryY=-0.013;entryDx=0;entryDy=0;entryPerimeter=0;startArrow=diamondThin;startFill=1;endArrow=none;endFill=0;strokeColor=#000000;" parent="1" source="vUpLBa6X5mZJnKH7JWD7-36" target="5KIEMbQEbxPHfrAZ8GCO-1" edge="1">
            <mxGeometry relative="1" as="geometry" />
          </mxCell>
        </object>
        <object id="ETMhu0fDtO1Yi5dX4Cxl-4">
          <ag_attributes />
          <ag_computed_attributes />
          <mxCell style="edgeStyle=none;rounded=0;orthogonalLoop=1;jettySize=auto;html=1;strokeWidth=2;endArrow=none;startArrow=diamondThin;startFill=1;endFill=0;startSize=9;endSize=9;spacingTop=0;spacingBottom=0;spacingLeft=0;spacingRight=0;jumpStyle=arc;strokeColor=#000000;" parent="1" source="vUpLBa6X5mZJnKH7JWD7-36" target="ETMhu0fDtO1Yi5dX4Cxl-1" edge="1">
            <mxGeometry relative="1" as="geometry" />
          </mxCell>
        </object>
        <object label="Inject compromised safe hardware" Resources="3" Knowledge="3" Location="1" id="vUpLBa6X5mZJnKH7JWD7-36">
          <ag_attributes label="NaN" Resources="5" Knowledge="5" Location="1" />
          <ag_computed_attributes fillColor="#40ff00" fontColor="#000000" value="1" />
          <ag_computed_attributes_function_reference ag_computed_attributes_function_reference="dbg60ff69g9a" />
          <ag_aggregation_function_reference ag_aggregation_function_reference="73f575i0ghij5" />
          <mxCell style="fillColor=#d7e3bf;whiteSpace=wrap;shape=attackgraphs.node;verticalAlign=top;spacingRight=20;" parent="1" vertex="1">
            <mxGeometry x="950" y="-390" width="170" height="60" as="geometry" />
          </mxCell>
        </object>
        <object id="3uWhjJXj1hLAOWgm0IXq-7">
          <ag_attributes />
          <ag_computed_attributes />
          <mxCell style="edgeStyle=none;rounded=0;orthogonalLoop=1;jettySize=auto;html=1;strokeWidth=2;endArrow=none;startArrow=diamondThin;startSize=9;endSize=9;spacingTop=0;spacingBottom=0;spacingLeft=0;spacingRight=0;endFill=0;startFill=1;strokeColor=#000000;" parent="1" source="vUpLBa6X5mZJnKH7JWD7-37" target="3uWhjJXj1hLAOWgm0IXq-6" edge="1">
            <mxGeometry relative="1" as="geometry" />
          </mxCell>
        </object>
        <object label="Overload data center" Resources="2" Knowledge="3" Location="0" id="vUpLBa6X5mZJnKH7JWD7-37">
          <ag_attributes label="NaN" Resources="5" Knowledge="4" Location="0" />
          <ag_computed_attributes fillColor="#40ff00" fontColor="#000000" value="1" />
          <ag_computed_attributes_function_reference ag_computed_attributes_function_reference="dbg60ff69g9a" />
          <ag_aggregation_function_reference ag_aggregation_function_reference="73f575i0ghij5" />
          <mxCell style="fillColor=#fee599;whiteSpace=wrap;shape=attackgraphs.node;spacingRight=20;verticalAlign=top;" parent="1" vertex="1">
            <mxGeometry x="2066" y="-640" width="164" height="45" as="geometry" />
          </mxCell>
        </object>
        <object label="Provoke delay" Resources="" Knowledge="" Location="" id="vUpLBa6X5mZJnKH7JWD7-40">
          <ag_attributes label="NaN" Resources="5" Knowledge="4" Location="0" _marking="vUpLBa6X5mZJnKH7JWD7-37" />
          <ag_computed_attributes fillColor="#40ff00" fontColor="#000000" value="1" />
          <ag_computed_attributes_function_reference ag_computed_attributes_function_reference="dbg60ff69g9a" />
          <ag_aggregation_function_reference ag_aggregation_function_reference="6b1d22791hih8" />
          <mxCell style="whiteSpace=wrap;shape=attackgraphs.node;verticalAlign=top;spacingRight=20;" parent="1" vertex="1">
            <mxGeometry x="1718" y="-840" width="170" height="60" as="geometry" />
          </mxCell>
        </object>
        <object label="Violation of Physical Integrity" id="vUpLBa6X5mZJnKH7JWD7-41">
          <ag_attributes _risk="L" _marking="vUpLBa6X5mZJnKH7JWD7-39" _weight="vUpLBa6X5mZJnKH7JWD7-39:5" />
          <ag_computed_attributes fillColor="#40ff00" fontColor="#000000" value="L" />
          <ag_computed_attributes_function_reference ag_computed_attributes_function_reference="6c831697g9i0a" />
          <ag_aggregation_function_reference ag_aggregation_function_reference="egf49jfgj408" />
          <mxCell style="rounded=1;whiteSpace=wrap;shape=attackgraphs.node;" parent="1" vertex="1">
            <mxGeometry x="805" y="-1000" width="190" height="40" as="geometry" />
          </mxCell>
        </object>
        <object label="Disruption of a Critical Service" id="vUpLBa6X5mZJnKH7JWD7-42">
          <ag_attributes _risk="L" _marking="vUpLBa6X5mZJnKH7JWD7-39;vUpLBa6X5mZJnKH7JWD7-40" _weight="vUpLBa6X5mZJnKH7JWD7-39:4;vUpLBa6X5mZJnKH7JWD7-40:3" />
          <ag_computed_attributes fillColor="#40ff00" fontColor="#000000" value="L" />
          <ag_computed_attributes_function_reference ag_computed_attributes_function_reference="6c831697g9i0a" />
          <ag_aggregation_function_reference ag_aggregation_function_reference="egf49jfgj408" />
          <mxCell style="rounded=1;whiteSpace=wrap;shape=attackgraphs.node;" parent="1" vertex="1">
            <mxGeometry x="1698" y="-1000" width="210" height="40" as="geometry" />
          </mxCell>
        </object>
        <object id="ZVXYmEzYP_AJPGhxlmkq-4">
          <ag_attributes />
          <ag_computed_attributes />
          <mxCell style="edgeStyle=none;rounded=0;orthogonalLoop=1;jettySize=auto;html=1;strokeWidth=2;endArrow=none;startArrow=diamondThin;startSize=9;endSize=9;spacingTop=0;spacingBottom=0;spacingLeft=0;spacingRight=0;endFill=0;startFill=1;strokeColor=#000000;" parent="1" source="vUpLBa6X5mZJnKH7JWD7-43" target="ZVXYmEzYP_AJPGhxlmkq-3" edge="1">
            <mxGeometry relative="1" as="geometry">
              <mxPoint x="1374.050185873606" y="-680" as="sourcePoint" />
            </mxGeometry>
          </mxCell>
        </object>
        <object label="Extortion" Resources="1" Knowledge="2" Location="0" id="vUpLBa6X5mZJnKH7JWD7-43">
          <ag_attributes label="NaN" Resources="5" Knowledge="4" Location="0" />
          <ag_computed_attributes fillColor="#40ff00" fontColor="#000000" value="1" />
          <ag_computed_attributes_function_reference ag_computed_attributes_function_reference="dbg60ff69g9a" />
          <ag_aggregation_function_reference ag_aggregation_function_reference="73f575i0ghij5" />
          <mxCell style="fillColor=#d7e3bf;whiteSpace=wrap;shape=attackgraphs.node;verticalAlign=top;spacingRight=20;" parent="1" vertex="1">
            <mxGeometry x="1302" y="-840" width="144" height="60" as="geometry" />
          </mxCell>
        </object>
        <object id="vUpLBa6X5mZJnKH7JWD7-52">
          <ag_attributes />
          <ag_computed_attributes />
          <mxCell style="edgeStyle=none;startArrow=none;endArrow=classicThin;startSize=9;endSize=9;spacingTop=0;spacingBottom=0;spacingLeft=0;spacingRight=0;verticalAlign=middle;labelBackgroundColor=default;rounded=0;endFill=1;strokeWidth=2;startFill=0;strokeColor=#000000;" parent="1" source="vUpLBa6X5mZJnKH7JWD7-17" target="vUpLBa6X5mZJnKH7JWD7-18" edge="1">
            <mxGeometry relative="1" as="geometry">
              <mxPoint y="-1" as="offset" />
              <Array as="points" />
            </mxGeometry>
          </mxCell>
        </object>
        <object id="vUpLBa6X5mZJnKH7JWD7-53">
          <ag_attributes />
          <ag_computed_attributes />
          <mxCell style="edgeStyle=none;startArrow=none;endArrow=classicThin;startSize=9;endSize=9;spacingTop=0;spacingBottom=0;spacingLeft=0;spacingRight=0;verticalAlign=middle;labelBackgroundColor=default;rounded=0;endFill=1;strokeWidth=2;startFill=0;strokeColor=#000000;" parent="1" source="vUpLBa6X5mZJnKH7JWD7-17" target="vUpLBa6X5mZJnKH7JWD7-35" edge="1">
            <mxGeometry relative="1" as="geometry">
              <mxPoint as="offset" />
              <Array as="points" />
            </mxGeometry>
          </mxCell>
        </object>
        <object label="" id="vUpLBa6X5mZJnKH7JWD7-54">
          <ag_attributes />
          <ag_computed_attributes />
          <mxCell style="edgeStyle=none;startArrow=none;endArrow=classicThin;startSize=9;endSize=9;spacingTop=0;spacingBottom=0;spacingLeft=0;spacingRight=0;verticalAlign=middle;labelBackgroundColor=default;rounded=0;align=center;endFill=1;strokeWidth=2;startFill=0;strokeColor=#000000;" parent="1" source="vUpLBa6X5mZJnKH7JWD7-17" target="vUpLBa6X5mZJnKH7JWD7-20" edge="1">
            <mxGeometry relative="1" as="geometry">
              <mxPoint y="-1" as="offset" />
              <Array as="points" />
            </mxGeometry>
          </mxCell>
        </object>
        <object label="" id="vUpLBa6X5mZJnKH7JWD7-55">
          <ag_attributes />
          <ag_computed_attributes />
          <mxCell style="edgeStyle=none;startArrow=none;endArrow=classicThin;startSize=9;endSize=9;spacingTop=0;spacingBottom=0;spacingLeft=0;spacingRight=0;verticalAlign=middle;labelBackgroundColor=default;rounded=0;align=center;endFill=1;strokeWidth=2;startFill=0;strokeColor=#000000;" parent="1" source="vUpLBa6X5mZJnKH7JWD7-19" target="vUpLBa6X5mZJnKH7JWD7-21" edge="1">
            <mxGeometry relative="1" as="geometry">
              <mxPoint x="-6" y="-1" as="offset" />
              <Array as="points" />
            </mxGeometry>
          </mxCell>
        </object>
        <object label="3" id="vUpLBa6X5mZJnKH7JWD7-56">
          <ag_attributes />
          <ag_computed_attributes />
          <mxCell style="edgeStyle=none;startArrow=none;endArrow=classicThin;startSize=9;endSize=9;spacingTop=0;spacingBottom=0;spacingLeft=0;spacingRight=0;verticalAlign=middle;labelBackgroundColor=default;rounded=0;align=center;entryX=0.5;entryY=0;entryDx=0;entryDy=0;entryPerimeter=0;endFill=1;strokeWidth=2;startFill=0;fontSize=15;strokeColor=#000000;" parent="1" source="vUpLBa6X5mZJnKH7JWD7-38" target="vUpLBa6X5mZJnKH7JWD7-43" edge="1">
            <mxGeometry relative="1" as="geometry">
              <mxPoint x="10" as="offset" />
              <Array as="points" />
            </mxGeometry>
          </mxCell>
        </object>
        <object id="vUpLBa6X5mZJnKH7JWD7-57">
          <ag_attributes />
          <ag_computed_attributes />
          <mxCell style="edgeStyle=none;startArrow=none;endArrow=classicThin;startSize=9;endSize=9;spacingTop=0;spacingBottom=0;spacingLeft=0;spacingRight=0;verticalAlign=middle;labelBackgroundColor=default;rounded=0;entryX=1;entryY=0.34;entryDx=0;entryDy=0;entryPerimeter=0;jumpStyle=arc;endFill=1;strokeWidth=2;startFill=0;strokeColor=#000000;" parent="1" source="vUpLBa6X5mZJnKH7JWD7-40" target="vUpLBa6X5mZJnKH7JWD7-17" edge="1">
            <mxGeometry relative="1" as="geometry">
              <mxPoint y="-1" as="offset" />
              <Array as="points" />
            </mxGeometry>
          </mxCell>
        </object>
        <object id="vUpLBa6X5mZJnKH7JWD7-58">
          <ag_attributes />
          <ag_computed_attributes />
          <mxCell style="edgeStyle=none;startArrow=none;endArrow=classicThin;startSize=9;endSize=9;spacingTop=0;spacingBottom=0;spacingLeft=0;spacingRight=0;verticalAlign=middle;labelBackgroundColor=default;rounded=0;entryX=1.0058823529411764;entryY=0.3;entryDx=0;entryDy=0;entryPerimeter=0;endFill=1;strokeWidth=2;startFill=0;strokeColor=#000000;" parent="1" source="vUpLBa6X5mZJnKH7JWD7-40" target="vUpLBa6X5mZJnKH7JWD7-24" edge="1">
            <mxGeometry relative="1" as="geometry">
              <mxPoint x="-1" as="offset" />
              <Array as="points" />
            </mxGeometry>
          </mxCell>
        </object>
        <object label="4" id="vUpLBa6X5mZJnKH7JWD7-59">
          <ag_attributes />
          <ag_computed_attributes />
          <mxCell style="edgeStyle=none;startArrow=none;endArrow=none;startSize=9;endSize=9;spacingTop=0;spacingBottom=0;spacingLeft=0;spacingRight=0;verticalAlign=middle;labelBackgroundColor=default;rounded=0;entryX=1;entryY=0.2;entryDx=0;entryDy=0;entryPerimeter=0;jumpStyle=arc;endFill=0;strokeWidth=2;startFill=0;fontSize=15;strokeColor=#000000;" parent="1" source="vUpLBa6X5mZJnKH7JWD7-42" target="vUpLBa6X5mZJnKH7JWD7-39" edge="1">
            <mxGeometry relative="1" as="geometry">
              <mxPoint x="-1" as="offset" />
              <Array as="points" />
            </mxGeometry>
          </mxCell>
        </object>
        <object label="3" id="vUpLBa6X5mZJnKH7JWD7-60">
          <ag_attributes />
          <ag_computed_attributes />
          <mxCell style="edgeStyle=none;startArrow=none;endArrow=classicThin;startSize=9;endSize=9;spacingTop=0;spacingBottom=0;spacingLeft=0;spacingRight=0;verticalAlign=middle;labelBackgroundColor=default;rounded=0;endFill=1;strokeWidth=2;startFill=0;fontSize=15;strokeColor=#000000;" parent="1" source="vUpLBa6X5mZJnKH7JWD7-42" target="vUpLBa6X5mZJnKH7JWD7-40" edge="1">
            <mxGeometry relative="1" as="geometry">
              <mxPoint as="offset" />
              <Array as="points" />
            </mxGeometry>
          </mxCell>
        </object>
        <object label="5" id="vUpLBa6X5mZJnKH7JWD7-61">
          <ag_attributes />
          <ag_computed_attributes />
          <mxCell style="edgeStyle=none;startArrow=none;endArrow=classicThin;startSize=9;endSize=9;spacingTop=0;spacingBottom=0;spacingLeft=0;spacingRight=0;verticalAlign=middle;labelBackgroundColor=default;rounded=0;endFill=1;strokeWidth=2;startFill=0;fontSize=15;strokeColor=#000000;" parent="1" source="vUpLBa6X5mZJnKH7JWD7-41" target="vUpLBa6X5mZJnKH7JWD7-39" edge="1">
            <mxGeometry relative="1" as="geometry">
              <mxPoint x="10" as="offset" />
              <Array as="points" />
              <mxPoint x="920" y="-970" as="sourcePoint" />
              <mxPoint x="900" y="-810" as="targetPoint" />
            </mxGeometry>
          </mxCell>
        </object>
        <object label="2" id="vUpLBa6X5mZJnKH7JWD7-62">
          <ag_attributes />
          <ag_computed_attributes />
          <mxCell style="edgeStyle=none;startArrow=none;endArrow=classic;startSize=9;endSize=9;spacingTop=0;spacingBottom=0;spacingLeft=0;spacingRight=0;verticalAlign=middle;labelBackgroundColor=default;rounded=0;endFill=1;strokeWidth=2;startFill=0;fontSize=15;strokeColor=#000000;" parent="1" source="vUpLBa6X5mZJnKH7JWD7-38" target="vUpLBa6X5mZJnKH7JWD7-40" edge="1">
            <mxGeometry relative="1" as="geometry">
              <mxPoint as="offset" />
              <Array as="points" />
            </mxGeometry>
          </mxCell>
        </object>
        <object label="4" id="vUpLBa6X5mZJnKH7JWD7-63">
          <ag_attributes />
          <ag_computed_attributes />
          <mxCell style="edgeStyle=none;startArrow=none;endArrow=classicThin;startSize=9;endSize=9;spacingTop=0;spacingBottom=0;spacingLeft=0;spacingRight=0;verticalAlign=middle;labelBackgroundColor=default;rounded=0;entryX=0.9235294117647059;entryY=0;entryDx=0;entryDy=0;entryPerimeter=0;endFill=1;strokeWidth=2;startFill=0;fontSize=15;strokeColor=#000000;" parent="1" source="vUpLBa6X5mZJnKH7JWD7-38" target="vUpLBa6X5mZJnKH7JWD7-39" edge="1">
            <mxGeometry relative="1" as="geometry">
              <mxPoint x="-1" as="offset" />
              <Array as="points" />
            </mxGeometry>
          </mxCell>
        </object>
        <object label="" id="vUpLBa6X5mZJnKH7JWD7-64">
          <ag_attributes />
          <ag_computed_attributes />
          <mxCell style="edgeStyle=none;startArrow=none;endArrow=openThin;spacingTop=0;spacingBottom=0;spacingLeft=0;spacingRight=0;verticalAlign=middle;labelBackgroundColor=default;rounded=0;align=center;entryX=0.07589285714285714;entryY=0;entryDx=0;entryDy=0;entryPerimeter=0;endFill=0;strokeWidth=2;startFill=0;strokeColor=#000000;" parent="1" source="vUpLBa6X5mZJnKH7JWD7-40" target="vUpLBa6X5mZJnKH7JWD7-37" edge="1">
            <mxGeometry relative="1" as="geometry">
              <mxPoint as="offset" />
              <Array as="points" />
              <mxPoint x="1888" y="-679.6457860615883" as="sourcePoint" />
            </mxGeometry>
          </mxCell>
        </object>
        <object label="" id="vUpLBa6X5mZJnKH7JWD7-65">
          <ag_attributes />
          <ag_computed_attributes />
          <mxCell style="edgeStyle=none;startArrow=none;endArrow=classicThin;startSize=9;endSize=9;spacingTop=0;spacingBottom=0;spacingLeft=0;spacingRight=0;verticalAlign=middle;labelBackgroundColor=default;rounded=0;align=center;exitX=0.31176470588235294;exitY=1;exitDx=0;exitDy=0;exitPerimeter=0;entryX=0.7619047619047619;entryY=0;entryDx=0;entryDy=0;entryPerimeter=0;endFill=1;strokeWidth=2;startFill=0;strokeColor=#000000;" parent="1" source="vUpLBa6X5mZJnKH7JWD7-24" target="vUpLBa6X5mZJnKH7JWD7-35" edge="1">
            <mxGeometry relative="1" as="geometry">
              <mxPoint x="-1" as="offset" />
              <Array as="points" />
            </mxGeometry>
          </mxCell>
        </object>
        <object label="" id="vUpLBa6X5mZJnKH7JWD7-66">
          <ag_attributes />
          <ag_computed_attributes />
          <mxCell style="edgeStyle=none;startArrow=none;endArrow=classicThin;startSize=9;endSize=9;spacingTop=0;spacingBottom=0;spacingLeft=0;spacingRight=0;verticalAlign=middle;labelBackgroundColor=default;rounded=0;align=center;exitX=0.4823529411764706;exitY=1;exitDx=0;exitDy=0;exitPerimeter=0;entryX=0.5317460317460317;entryY=0;entryDx=0;entryDy=0;entryPerimeter=0;endFill=1;strokeWidth=2;startFill=0;strokeColor=#000000;" parent="1" source="vUpLBa6X5mZJnKH7JWD7-24" target="vUpLBa6X5mZJnKH7JWD7-36" edge="1">
            <mxGeometry relative="1" as="geometry">
              <mxPoint x="-3" y="-1" as="offset" />
              <Array as="points" />
            </mxGeometry>
          </mxCell>
        </object>
        <object id="vUpLBa6X5mZJnKH7JWD7-67">
          <ag_attributes />
          <ag_computed_attributes />
          <mxCell style="edgeStyle=none;startArrow=none;endArrow=classicThin;startSize=9;endSize=9;spacingTop=0;spacingBottom=0;spacingLeft=0;spacingRight=0;verticalAlign=middle;labelBackgroundColor=default;rounded=0;jumpStyle=arc;endFill=1;strokeWidth=2;startFill=0;strokeColor=#000000;" parent="1" source="vUpLBa6X5mZJnKH7JWD7-17" target="vUpLBa6X5mZJnKH7JWD7-36" edge="1">
            <mxGeometry relative="1" as="geometry">
              <mxPoint as="offset" />
              <Array as="points" />
            </mxGeometry>
          </mxCell>
        </object>
        <object id="vUpLBa6X5mZJnKH7JWD7-68">
          <ag_attributes />
          <ag_computed_attributes />
          <mxCell style="edgeStyle=none;startArrow=none;endArrow=classicThin;startSize=9;endSize=9;spacingTop=0;spacingBottom=0;spacingLeft=0;spacingRight=0;verticalAlign=middle;labelBackgroundColor=default;rounded=0;endFill=1;strokeWidth=2;startFill=0;strokeColor=#000000;" parent="1" source="vUpLBa6X5mZJnKH7JWD7-17" target="vUpLBa6X5mZJnKH7JWD7-19" edge="1">
            <mxGeometry relative="1" as="geometry">
              <mxPoint as="offset" />
              <Array as="points" />
            </mxGeometry>
          </mxCell>
        </object>
        <object label="" id="vUpLBa6X5mZJnKH7JWD7-69">
          <ag_attributes />
          <ag_computed_attributes />
          <mxCell style="edgeStyle=none;startArrow=none;endArrow=classicThin;startSize=9;endSize=9;spacingTop=0;spacingBottom=0;spacingLeft=0;spacingRight=0;verticalAlign=middle;labelBackgroundColor=default;rounded=0;align=center;exitX=0.6263157894736842;exitY=1;exitDx=0;exitDy=0;exitPerimeter=0;entryX=0.29838709677419356;entryY=0;entryDx=0;entryDy=0;entryPerimeter=0;endFill=1;strokeWidth=2;startFill=0;strokeColor=#000000;" parent="1" source="vUpLBa6X5mZJnKH7JWD7-26" target="vUpLBa6X5mZJnKH7JWD7-29" edge="1">
            <mxGeometry relative="1" as="geometry">
              <mxPoint as="offset" />
              <Array as="points" />
            </mxGeometry>
          </mxCell>
        </object>
        <object label="" id="vUpLBa6X5mZJnKH7JWD7-70">
          <ag_attributes />
          <ag_computed_attributes />
          <mxCell style="edgeStyle=none;startArrow=none;endArrow=classicThin;startSize=9;endSize=9;spacingTop=0;spacingBottom=0;spacingLeft=0;spacingRight=0;verticalAlign=middle;labelBackgroundColor=default;rounded=0;align=center;exitX=0.4263157894736842;exitY=1;exitDx=0;exitDy=0;exitPerimeter=0;entryX=0.6547619047619048;entryY=0;entryDx=0;entryDy=0;entryPerimeter=0;endFill=1;strokeWidth=2;startFill=0;strokeColor=#000000;" parent="1" source="vUpLBa6X5mZJnKH7JWD7-26" target="vUpLBa6X5mZJnKH7JWD7-28" edge="1">
            <mxGeometry relative="1" as="geometry">
              <mxPoint x="-1" as="offset" />
              <Array as="points" />
            </mxGeometry>
          </mxCell>
        </object>
        <object label="" id="vUpLBa6X5mZJnKH7JWD7-71">
          <ag_attributes />
          <ag_computed_attributes />
          <mxCell style="edgeStyle=none;startArrow=none;endArrow=classicThin;startSize=9;endSize=9;spacingTop=0;spacingBottom=0;spacingLeft=0;spacingRight=0;verticalAlign=middle;labelBackgroundColor=default;rounded=0;align=center;entryX=0.35714285714285715;entryY=0;entryDx=0;entryDy=0;entryPerimeter=0;endFill=1;strokeWidth=2;startFill=0;strokeColor=#000000;" parent="1" source="vUpLBa6X5mZJnKH7JWD7-40" target="vUpLBa6X5mZJnKH7JWD7-27" edge="1">
            <mxGeometry relative="1" as="geometry">
              <mxPoint as="offset" />
              <Array as="points" />
              <mxPoint x="1854.9517308629938" y="-670.5" as="sourcePoint" />
            </mxGeometry>
          </mxCell>
        </object>
        <object label="" id="vUpLBa6X5mZJnKH7JWD7-72">
          <ag_attributes />
          <ag_computed_attributes />
          <mxCell style="edgeStyle=none;startArrow=none;endArrow=classicThin;startSize=9;endSize=9;spacingTop=0;spacingBottom=0;spacingLeft=0;spacingRight=0;verticalAlign=middle;labelBackgroundColor=default;rounded=0;align=center;entryX=0.7473684210526316;entryY=0;entryDx=0;entryDy=0;entryPerimeter=0;endFill=1;strokeWidth=2;startFill=0;strokeColor=#000000;" parent="1" source="vUpLBa6X5mZJnKH7JWD7-40" target="vUpLBa6X5mZJnKH7JWD7-26" edge="1">
            <mxGeometry relative="1" as="geometry">
              <mxPoint x="-1" as="offset" />
              <Array as="points" />
              <mxPoint x="1739.283276450512" y="-670.5" as="sourcePoint" />
            </mxGeometry>
          </mxCell>
        </object>
        <object label="" id="vUpLBa6X5mZJnKH7JWD7-73">
          <ag_attributes />
          <ag_computed_attributes />
          <mxCell style="edgeStyle=none;startArrow=none;endArrow=classicThin;startSize=9;endSize=9;spacingTop=0;spacingBottom=0;spacingLeft=0;spacingRight=0;verticalAlign=middle;labelBackgroundColor=default;rounded=0;align=center;exitX=0.7470588235294118;exitY=1;exitDx=0;exitDy=0;exitPerimeter=0;entryX=0.27232142857142855;entryY=0;entryDx=0;entryDy=0;entryPerimeter=0;endFill=1;strokeWidth=2;startFill=0;strokeColor=#000000;" parent="1" source="vUpLBa6X5mZJnKH7JWD7-24" target="vUpLBa6X5mZJnKH7JWD7-25" edge="1">
            <mxGeometry relative="1" as="geometry">
              <mxPoint as="offset" />
              <Array as="points" />
            </mxGeometry>
          </mxCell>
        </object>
        <object id="vUpLBa6X5mZJnKH7JWD7-74">
          <ag_attributes />
          <ag_computed_attributes />
          <mxCell style="edgeStyle=none;startArrow=none;endArrow=classicThin;startSize=9;endSize=9;spacingTop=0;spacingBottom=0;spacingLeft=0;spacingRight=0;verticalAlign=middle;labelBackgroundColor=default;rounded=0;endFill=1;strokeWidth=2;startFill=0;strokeColor=#000000;" parent="1" source="vUpLBa6X5mZJnKH7JWD7-39" target="vUpLBa6X5mZJnKH7JWD7-24" edge="1">
            <mxGeometry relative="1" as="geometry">
              <mxPoint x="-1" y="-1" as="offset" />
              <Array as="points" />
              <mxPoint x="940" y="-680" as="sourcePoint" />
            </mxGeometry>
          </mxCell>
        </object>
        <object label="" id="vUpLBa6X5mZJnKH7JWD7-75">
          <ag_attributes />
          <ag_computed_attributes />
          <mxCell style="edgeStyle=none;startArrow=none;endArrow=classicThin;startSize=9;endSize=9;spacingTop=0;spacingBottom=0;spacingLeft=0;spacingRight=0;verticalAlign=middle;labelBackgroundColor=default;rounded=0;align=center;exitX=0.5;exitY=1;exitDx=0;exitDy=0;exitPerimeter=0;entryX=0.5;entryY=0;entryDx=0;entryDy=0;entryPerimeter=0;endFill=1;strokeWidth=2;startFill=0;strokeColor=#000000;" parent="1" source="vUpLBa6X5mZJnKH7JWD7-18" target="vUpLBa6X5mZJnKH7JWD7-23" edge="1">
            <mxGeometry relative="1" as="geometry">
              <mxPoint x="-10" as="offset" />
              <Array as="points" />
            </mxGeometry>
          </mxCell>
        </object>
        <object id="vUpLBa6X5mZJnKH7JWD7-76">
          <ag_attributes />
          <ag_computed_attributes />
          <mxCell style="edgeStyle=none;startArrow=none;endArrow=classicThin;startSize=9;endSize=9;spacingTop=0;spacingBottom=0;spacingLeft=0;spacingRight=0;verticalAlign=middle;labelBackgroundColor=default;rounded=0;endFill=1;strokeWidth=2;startFill=0;strokeColor=#000000;" parent="1" source="vUpLBa6X5mZJnKH7JWD7-39" target="vUpLBa6X5mZJnKH7JWD7-17" edge="1">
            <mxGeometry relative="1" as="geometry">
              <mxPoint y="-1" as="offset" />
              <Array as="points" />
              <mxPoint x="820" y="-680" as="sourcePoint" />
            </mxGeometry>
          </mxCell>
        </object>
        <object label="Attack Target&#10;Cloud Interlocking" id="QO6YM6yXwNM-NFO-U2gJ-1">
          <ag_attributes />
          <ag_computed_attributes />
          <mxCell style="whiteSpace=wrap;shape=trapezoid;size=0.075;" parent="1" vertex="1">
            <mxGeometry x="1165" y="-1130" width="300" height="60" as="geometry" />
          </mxCell>
        </object>
        <object label="Financial Damage" id="vUpLBa6X5mZJnKH7JWD7-38">
          <ag_attributes _risk="L" _marking="vUpLBa6X5mZJnKH7JWD7-43;vUpLBa6X5mZJnKH7JWD7-40;vUpLBa6X5mZJnKH7JWD7-39" _weight="vUpLBa6X5mZJnKH7JWD7-43:3;vUpLBa6X5mZJnKH7JWD7-40:2;vUpLBa6X5mZJnKH7JWD7-39:4" />
          <ag_computed_attributes fillColor="#40ff00" fontColor="#000000" value="L" />
          <ag_computed_attributes_function_reference ag_computed_attributes_function_reference="6c831697g9i0a" />
          <ag_aggregation_function_reference ag_aggregation_function_reference="egf49jfgj408" />
          <mxCell style="rounded=1;whiteSpace=wrap;shape=attackgraphs.node;" parent="1" vertex="1">
            <mxGeometry x="1110" y="-1000" width="190" height="40" as="geometry" />
          </mxCell>
        </object>
        <object label="3" id="vsxWry4C87c9WAQc7QS0-2">
          <ag_attributes />
          <ag_computed_attributes />
          <mxCell style="edgeStyle=none;rounded=0;orthogonalLoop=1;jettySize=auto;html=1;strokeWidth=2;endArrow=classic;startArrow=none;startSize=9;endSize=9;spacingTop=0;spacingBottom=0;spacingLeft=0;spacingRight=0;endFill=1;startFill=0;fontSize=15;strokeColor=#000000;" parent="1" source="vsxWry4C87c9WAQc7QS0-1" target="vUpLBa6X5mZJnKH7JWD7-39" edge="1">
            <mxGeometry relative="1" as="geometry" />
          </mxCell>
        </object>
        <object label="2" id="vsxWry4C87c9WAQc7QS0-3">
          <ag_attributes />
          <ag_computed_attributes />
          <mxCell style="edgeStyle=none;rounded=0;orthogonalLoop=1;jettySize=auto;html=1;strokeWidth=2;endArrow=classicThin;startArrow=none;startSize=9;endSize=9;spacingTop=0;spacingBottom=0;spacingLeft=0;spacingRight=0;endFill=1;startFill=0;fontSize=15;strokeColor=#000000;" parent="1" source="vsxWry4C87c9WAQc7QS0-1" target="vUpLBa6X5mZJnKH7JWD7-43" edge="1">
            <mxGeometry relative="1" as="geometry" />
          </mxCell>
        </object>
        <object label="2" id="vsxWry4C87c9WAQc7QS0-4">
          <ag_attributes />
          <ag_computed_attributes />
          <mxCell style="edgeStyle=none;rounded=0;orthogonalLoop=1;jettySize=auto;html=1;strokeWidth=2;endArrow=classicThin;startArrow=none;startSize=9;endSize=9;spacingTop=0;spacingBottom=0;spacingLeft=0;spacingRight=0;endFill=1;startFill=0;fontSize=15;strokeColor=#000000;" parent="1" source="vsxWry4C87c9WAQc7QS0-1" target="vUpLBa6X5mZJnKH7JWD7-40" edge="1">
            <mxGeometry relative="1" as="geometry" />
          </mxCell>
        </object>
        <object label="Reputational Damage Operator" id="vsxWry4C87c9WAQc7QS0-1">
          <ag_attributes _risk="L" _marking="vUpLBa6X5mZJnKH7JWD7-39;vUpLBa6X5mZJnKH7JWD7-43;vUpLBa6X5mZJnKH7JWD7-40" _weight="vUpLBa6X5mZJnKH7JWD7-39:3;vUpLBa6X5mZJnKH7JWD7-43:2;vUpLBa6X5mZJnKH7JWD7-40:2" />
          <ag_computed_attributes fillColor="#40ff00" fontColor="#000000" value="L" />
          <ag_computed_attributes_function_reference ag_computed_attributes_function_reference="6c831697g9i0a" />
          <ag_aggregation_function_reference ag_aggregation_function_reference="egf49jfgj408" />
          <mxCell style="rounded=1;whiteSpace=wrap;shape=attackgraphs.node;" parent="1" vertex="1">
            <mxGeometry x="1380" y="-1000" width="210" height="40" as="geometry" />
          </mxCell>
        </object>
        <object label="Force train collision" Resources="" Knowledge="" Location="" id="vUpLBa6X5mZJnKH7JWD7-39">
          <ag_attributes label="NaN" Resources="5" Knowledge="5" Location="0" _marking="vUpLBa6X5mZJnKH7JWD7-24" />
          <ag_computed_attributes fillColor="#40ff00" fontColor="#000000" value="1" />
          <ag_computed_attributes_function_reference ag_computed_attributes_function_reference="dbg60ff69g9a" />
          <ag_aggregation_function_reference ag_aggregation_function_reference="6b1d22791hih8" />
          <mxCell style="whiteSpace=wrap;shape=attackgraphs.node;verticalAlign=top;spacingRight=20;" parent="1" vertex="1">
            <mxGeometry x="815" y="-840" width="170" height="60" as="geometry" />
          </mxCell>
        </object>
        <object label="Access Control&#10;Physical Access Control" Resources="1" Knowledge="1" Location="0" id="5KIEMbQEbxPHfrAZ8GCO-1">
          <ag_attributes />
          <ag_computed_attributes />
          <mxCell style="shape=attackgraphs.node;fillColor=#DAE8FC;verticalAlign=top;" parent="1" vertex="1">
            <mxGeometry x="640" y="-30" width="150" height="60" as="geometry" />
          </mxCell>
        </object>
        <object label="Redundancy" Resources="3" Knowledge="2" Location="0" id="3uWhjJXj1hLAOWgm0IXq-1">
          <ag_attributes />
          <ag_computed_attributes />
          <mxCell style="shape=attackgraphs.node;fillColor=#DAE8FC;verticalAlign=top;" parent="1" vertex="1">
            <mxGeometry x="1850" y="-40" width="150" height="60" as="geometry" />
          </mxCell>
        </object>
        <object label="Resilience" Resources="3" Knowledge="2" Location="0" id="3uWhjJXj1hLAOWgm0IXq-4">
          <ag_attributes />
          <ag_computed_attributes />
          <mxCell style="shape=attackgraphs.node;fillColor=#DAE8FC" parent="1" vertex="1">
            <mxGeometry x="1467" y="120" width="120" height="45" as="geometry" />
          </mxCell>
        </object>
        <object label="Redundancy&#10;Scalability&#10;Access Restriction&#10;Access Control" Resources="3" Knowledge="1" Location="0" id="3uWhjJXj1hLAOWgm0IXq-6">
          <ag_attributes />
          <ag_computed_attributes />
          <mxCell style="shape=attackgraphs.node;fillColor=#DAE8FC;verticalAlign=top;align=left;spacingLeft=2;whiteSpace=wrap;" parent="1" vertex="1">
            <mxGeometry x="2038" y="-40" width="220" height="90" as="geometry" />
          </mxCell>
        </object>
        <object label="Malware Protection&#10;Vulnerabilityscans&#10;Penetration testing&#10;System hardening&#10;Backups" Resources="4" Knowledge="2" Location="0" id="ZVXYmEzYP_AJPGhxlmkq-3">
          <ag_attributes />
          <ag_computed_attributes />
          <mxCell style="shape=attackgraphs.node;fillColor=#DAE8FC;verticalAlign=top;" parent="1" vertex="1">
            <mxGeometry x="1300" y="-40" width="150" height="100" as="geometry" />
          </mxCell>
        </object>
        <object label="Replay Protection" Resources="2" Knowledge="2" Location="0" id="ZVXYmEzYP_AJPGhxlmkq-9">
          <ag_attributes />
          <ag_computed_attributes />
          <mxCell style="shape=attackgraphs.node;fillColor=#DAE8FC;verticalAlign=top;whiteSpace=wrap;" parent="1" vertex="1">
            <mxGeometry x="243.5" y="-30" width="146.5" height="50" as="geometry" />
          </mxCell>
        </object>
        <object label="" id="cdKFcXAmgzkw1FBSCr1U-3">
          <ag_attributes />
          <ag_computed_attributes />
          <mxCell style="endArrow=none;dashed=1;html=1;rounded=0;strokeWidth=1;strokeColor=#000000;" parent="1" edge="1">
            <mxGeometry width="50" height="50" relative="1" as="geometry">
              <mxPoint x="180" y="70" as="sourcePoint" />
              <mxPoint x="2260" y="70" as="targetPoint" />
            </mxGeometry>
          </mxCell>
        </object>
        <object label="Physical Access Control" Resources="1" Knowledge="1" Location="0" id="E_le5nDdO42Rsl0jmOGN-1">
          <ag_attributes />
          <ag_computed_attributes />
          <mxCell style="shape=attackgraphs.node;fillColor=#DAE8FC;verticalAlign=top;" parent="1" vertex="1">
            <mxGeometry x="1654" y="-40" width="150" height="60" as="geometry" />
          </mxCell>
        </object>
        <object label="Security Monitoring" Resources="1" Knowledge="1" Location="0" id="ETMhu0fDtO1Yi5dX4Cxl-1">
          <ag_attributes />
          <ag_computed_attributes />
          <mxCell style="shape=attackgraphs.node;fillColor=#DAE8FC;verticalAlign=top;" parent="1" vertex="1">
            <mxGeometry x="870" y="120" width="120" height="45" as="geometry" />
          </mxCell>
        </object>
        <object label="Secure Storage" Resources="2" Knowledge="2" Location="1" id="ETMhu0fDtO1Yi5dX4Cxl-5">
          <ag_attributes />
          <ag_computed_attributes />
          <mxCell style="shape=attackgraphs.node;fillColor=#DAE8FC;verticalAlign=top;" parent="1" vertex="1">
            <mxGeometry x="457" y="-30" width="120" height="45" as="geometry" />
          </mxCell>
        </object>
        <object label="Physical Access Control" Resources="1" Knowledge="1" Location="0" id="ETMhu0fDtO1Yi5dX4Cxl-9">
          <ag_attributes />
          <ag_computed_attributes />
          <mxCell style="shape=attackgraphs.node;fillColor=#DAE8FC;verticalAlign=top;" parent="1" vertex="1">
            <mxGeometry x="1040" y="-30" width="120" height="45" as="geometry" />
          </mxCell>
        </object>
        <object label="Resilience" Resources="3" Knowledge="2" Location="0" id="WtK6NQJGHgGDNpcNGOOI-1">
          <ag_attributes />
          <ag_computed_attributes />
          <mxCell style="shape=attackgraphs.node;fillColor=#DAE8FC;verticalAlign=top;" parent="1" vertex="1">
            <mxGeometry x="1467" y="120" width="120" height="45" as="geometry" />
          </mxCell>
        </object>
      </root>
    </mxGraphModel>
  </diagram>
</mxfile>